# Blender 3.6.1
# www.blender.org
mtllib maxpoinst.mtl
o maxpoins
v 0.904242 1.220806 -0.043832
v 0.488367 1.242704 0.033902
v 0.695744 2.465163 -0.065103
v -0.600292 0.457024 0.327345
v 1.495150 0.926944 -0.137785
v -0.133043 0.954563 0.164424
v 0.429331 0.037495 0.066443
v 0.783905 -0.623709 0.016696
v -0.222064 -0.152648 0.270830
v -0.928584 -1.735273 0.474565
v -0.233191 -1.449171 0.319906
v -0.395064 -1.171060 0.343473
v -0.921393 -0.896932 0.442833
v -0.808102 -1.156661 0.428686
v 0.834184 1.205818 -0.423340
v 0.417592 1.227459 -0.345462
v 0.624999 2.446729 -0.444331
v -0.695781 0.433190 -0.046115
v 1.425806 0.908839 -0.517288
v -0.204030 0.935897 -0.214748
v 0.341482 0.018666 -0.309172
v 0.694145 -0.643724 -0.358406
v -0.314860 -0.174863 -0.103408
v -1.007026 -1.748904 0.096650
v -0.311633 -1.462803 -0.058009
v -0.473506 -1.184692 -0.034442
v -0.999835 -0.910564 0.064918
v -0.886544 -1.170293 0.050771
vn 0.1768 0.0208 0.9840
vn 0.1860 0.0479 0.9814
vn 0.1795 0.0469 0.9826
vn 0.1838 0.0483 0.9818
vn 0.2763 0.0827 0.9575
vn 0.2031 0.0353 0.9785
vn -0.1771 -0.0211 -0.9840
vn -0.1860 -0.0479 -0.9814
vn -0.1796 -0.0469 -0.9826
vn -0.1838 -0.0484 -0.9818
vn -0.2776 -0.0766 -0.9576
vn -0.2026 -0.0350 -0.9786
vn -0.2031 -0.0353 -0.9785
vn 0.9815 -0.0699 -0.1784
vn 0.9707 -0.0174 -0.2397
vn 0.3412 0.9285 -0.1465
vn -0.9722 0.0679 0.2240
vn -0.4266 -0.8964 0.1207
vn 0.4171 -0.9079 -0.0413
vn -0.3876 -0.9109 0.1414
vn -0.8596 0.4924 0.1367
vn 0.8681 0.4608 -0.1844
vn -0.9791 0.0161 0.2027
vn -0.4317 -0.8938 0.1218
vn -0.9696 -0.1317 0.2060
vn 0.4400 0.8895 -0.1234
vn 0.9578 -0.2146 -0.1911
vn 0.1846 0.0175 0.9827
vn 0.2780 0.0770 0.9575
vn -0.1846 -0.0179 -0.9826
vn -0.2759 -0.0826 -0.9576
vn -0.2030 -0.0349 -0.9786
vn 0.9703 -0.0815 -0.2278
vn 0.9792 -0.0047 -0.2031
vn 0.3403 0.9318 -0.1263
vn -0.9820 0.0530 0.1811
vn -0.4310 -0.8950 0.1149
vn 0.4147 -0.9093 -0.0329
vn -0.3879 -0.9094 0.1502
vn -0.8596 0.4924 0.1364
vn 0.8692 0.4603 -0.1808
vn -0.9602 -0.1185 0.2531
vt 0.731429 0.650056
vt 0.564951 0.384085
vt 0.624132 0.209436
vt 0.630073 0.672810
vt 0.734337 0.959474
vt 0.863814 0.554242
vt 0.464715 0.629281
vt 0.392796 0.365494
vt 0.325563 0.528685
vt 0.306377 0.126688
vt 0.334413 0.052693
vt 0.205005 0.147510
vt 0.188176 0.215023
vt 0.150426 0.012764
vt 0.562397 0.383224
vt 0.733436 0.649377
vt 0.621051 0.208368
vt 0.631893 0.672098
vt 0.736026 0.957991
vt 0.865862 0.552778
vt 0.466334 0.627752
vt 0.388863 0.364022
vt 0.320889 0.526936
s 0
usemtl maxpoinst
f 1/1/1 7/2/1 8/3/1
f 2/4/2 1/1/2 3/5/2
f 3/5/3 1/1/3 5/6/3
f 2/4/4 3/5/4 6/7/4
f 9/8/5 7/2/5 4/9/5
f 9/8/6 12/10/6 11/11/6
f 14/12/6 12/10/6 13/13/6
f 10/14/6 14/12/6 13/13/6
f 21/15/7 15/16/7 22/17/7
f 16/18/8 17/19/8 15/16/8
f 17/19/9 19/20/9 15/16/9
f 16/18/10 20/21/10 17/19/10
f 23/22/11 21/15/11 22/17/11
f 26/10/12 23/22/12 25/11/12
f 28/12/13 26/10/13 25/11/13
f 24/14/13 27/13/13 28/12/13
f 8/3/14 15/16/14 1/1/14
f 11/11/15 23/22/15 9/8/15
f 7/2/16 18/23/16 4/9/16
f 7/2/17 16/18/17 21/15/17
f 1/1/18 19/20/18 5/6/18
f 2/4/19 20/21/19 16/18/19
f 8/3/20 23/22/20 22/17/20
f 3/5/21 20/21/21 6/7/21
f 3/5/22 19/20/22 17/19/22
f 10/14/23 27/13/23 24/14/23
f 14/12/24 25/11/24 11/11/24
f 12/10/25 18/23/25 26/10/25
f 12/10/26 27/13/26 13/13/26
f 14/12/27 24/14/27 28/12/27
f 1/1/28 2/4/28 7/2/28
f 9/8/29 8/3/29 7/2/29
f 9/8/6 4/9/6 12/10/6
f 14/12/6 11/11/6 12/10/6
f 21/15/30 16/18/30 15/16/30
f 23/22/31 18/23/31 21/15/31
f 26/10/32 18/23/32 23/22/32
f 28/12/13 27/13/13 26/10/13
f 8/3/33 22/17/33 15/16/33
f 11/11/34 25/11/34 23/22/34
f 7/2/35 21/15/35 18/23/35
f 7/2/36 2/4/36 16/18/36
f 1/1/37 15/16/37 19/20/37
f 2/4/38 6/7/38 20/21/38
f 8/3/39 9/8/39 23/22/39
f 3/5/40 17/19/40 20/21/40
f 3/5/41 5/6/41 19/20/41
f 10/14/23 13/13/23 27/13/23
f 14/12/24 28/12/24 25/11/24
f 12/10/42 4/9/42 18/23/42
f 12/10/26 26/10/26 27/13/26
f 14/12/27 10/14/27 24/14/27
