# Blender 3.6.1
# www.blender.org
mtllib crater_3.mtl
o crater
v -0.000000 0.000000 -1.944144
v 0.000000 0.463753 -1.388456
v 0.790755 0.000000 -1.776064
v 0.564736 0.463753 -1.268417
v 1.444781 0.000000 -1.300886
v 1.031824 0.572985 -0.929058
v 1.848991 0.000000 -0.600773
v 1.320500 0.463753 -0.429056
v 1.933494 0.000000 0.203218
v 1.380849 0.572985 0.145133
v 1.683678 0.000000 0.972072
v 1.202438 0.463753 0.694228
v 1.142739 0.000000 1.572845
v 0.816114 0.572985 1.123284
v 0.404210 0.000000 1.901660
v 0.288676 0.463753 1.358114
v -0.404210 0.000000 1.901660
v -0.288676 0.572985 1.358114
v -1.142739 0.000000 1.572845
v -0.816114 0.463753 1.123284
v -1.683678 0.000000 0.972072
v -1.202438 0.572985 0.694228
v -1.933494 0.000000 0.203218
v -1.380849 0.463753 0.145133
v -1.848991 0.000000 -0.600773
v -1.320500 0.572985 -0.429056
v -1.444781 0.000000 -1.300886
v -1.031824 0.463753 -0.929058
v -0.790755 0.000000 -1.776064
v -0.564736 0.572985 -1.268417
v 0.000000 0.662964 -1.271839
v 0.517304 0.593793 -1.161883
v 0.945161 0.662964 -0.851027
v 1.209591 0.593793 -0.393020
v 1.264872 0.662964 0.132943
v 1.101445 0.593793 0.635920
v 0.747568 0.662964 1.028939
v 0.264430 0.593793 1.244046
v -0.264430 0.593793 1.244046
v -0.747568 0.662964 1.028939
v -1.101445 0.593793 0.635920
v -1.264872 0.662964 0.132943
v -1.209591 0.593793 -0.393020
v -0.945161 0.662964 -0.851027
v -0.517304 0.593793 -1.161883
v -0.000000 0.369434 -1.461750
v 0.594547 0.247177 -1.335375
v 1.086292 0.247177 -0.978102
v 1.390207 0.369434 -0.451706
v 1.453743 0.247177 0.152795
v 1.265913 0.369434 0.730875
v 0.859195 0.247177 1.182581
v 0.303915 0.369434 1.429807
v -0.303915 0.247177 1.429807
v -0.859195 0.369434 1.182581
v -1.265913 0.247177 0.730875
v -1.453743 0.369434 0.152795
v -1.390207 0.247177 -0.451706
v -1.086292 0.369434 -0.978102
v -0.594547 0.247177 -1.335375
v 0.000000 0.529912 -1.122819
v 0.456692 0.529912 -1.025746
v 0.834417 0.606653 -0.751313
v 1.067865 0.529912 -0.346970
v 1.116668 0.606653 0.117367
v 0.972390 0.529912 0.561410
v 0.659977 0.606653 0.908380
v 0.233447 0.529912 1.098283
v -0.233447 0.606653 1.098283
v -0.659977 0.529912 0.908380
v -0.972390 0.606653 0.561410
v -1.116668 0.529912 0.117367
v -1.067865 0.606653 -0.346970
v -0.834417 0.529912 -0.751313
v -0.456692 0.606653 -1.025746
v 0.000000 0.290194 -0.589807
v 0.239896 0.290194 -0.538815
v 0.438312 0.290194 -0.394658
v 0.560940 0.290194 -0.182260
v 0.586576 0.290194 0.061652
v 0.510788 0.290194 0.294903
v 0.346680 0.290194 0.477164
v 0.122628 0.290194 0.576918
v -0.122628 0.290194 0.576918
v -0.346680 0.290194 0.477164
v -0.510788 0.290194 0.294903
v -0.586576 0.290194 0.061652
v -0.560940 0.290194 -0.182260
v -0.438312 0.290194 -0.394658
v -0.239896 0.290194 -0.538815
v 0.000000 0.290194 -0.000000
v 0.381951 0.508625 -0.857877
v -0.195242 0.508625 0.918542
v 0.000000 0.508625 -0.939063
v 0.195242 0.508625 0.918542
v -0.381951 0.508625 -0.857877
v 0.551967 0.508625 0.759718
v -0.697860 0.508625 -0.628356
v 0.813252 0.508625 0.469532
v -0.893102 0.508625 -0.290186
v 0.933919 0.508625 0.098159
v -0.813252 0.508625 0.469532
v -0.933919 0.508625 0.098159
v 0.697860 0.508625 -0.628356
v 0.893102 0.508625 -0.290186
v -0.551967 0.508625 0.759718
v 0.688774 0.065779 -1.547012
v 1.258453 0.143246 -1.133116
v 1.610534 0.065779 -0.523294
v 1.684139 0.143246 0.177010
v 1.466541 0.065779 0.846708
v 0.995365 0.143246 1.370002
v 0.352081 0.065779 1.656410
v -0.352081 0.143246 1.656410
v -0.995365 0.065779 1.370002
v -1.466541 0.143246 0.846708
v -1.684139 0.065779 0.177010
v -1.610534 0.143246 -0.523294
v -1.258453 0.065779 -1.133116
v -0.688774 0.143246 -1.547012
v -0.000000 0.065779 -1.693416
vn 0.0209 0.5626 -0.8264
vn 0.0277 0.5051 -0.8626
vn 0.3455 0.4815 -0.8055
vn 0.3276 0.6008 -0.7292
vn 0.6190 0.5423 -0.5681
vn 0.5716 0.6095 -0.5493
vn 0.8218 0.5033 -0.2670
vn 0.7902 0.5565 -0.2567
vn 0.8265 0.5562 0.0869
vn 0.8014 0.5922 0.0842
vn 0.7484 0.5033 0.4321
vn 0.7195 0.5565 0.4154
vn 0.4885 0.5562 0.6724
vn 0.4736 0.5922 0.6519
vn 0.1749 0.5353 0.8264
vn 0.1727 0.5565 0.8127
vn -0.1627 0.5821 0.7967
vn -0.1675 0.5922 0.7882
vn -0.5062 0.5083 0.6967
vn -0.4884 0.5565 0.6722
vn -0.7269 0.5436 0.4197
vn -0.6978 0.5922 0.4029
vn -0.8565 0.5083 0.0900
vn -0.8263 0.5565 0.0868
vn -0.7983 0.5436 -0.2594
vn -0.7663 0.5922 -0.2490
vn -0.6400 0.5083 -0.5762
vn -0.6174 0.5565 -0.5559
vn -0.3414 0.5436 -0.7668
vn -0.3277 0.5922 -0.7361
vn 0.2707 0.9586 -0.0880
vn 0.2213 0.9749 0.0233
vn -0.0181 0.9679 0.2508
vn -0.1398 0.9713 0.1924
vn -0.1768 0.9713 -0.1592
vn -0.1086 0.9637 -0.2439
vn 0.0746 0.9552 -0.2865
vn 0.1654 0.9749 -0.1489
vn 0.1308 0.9749 0.1800
vn 0.0296 0.9624 0.2702
vn -0.2366 0.9713 0.0249
vn -0.2539 0.9637 -0.0825
vn 0.2465 0.9586 0.1423
vn -0.2312 0.9637 0.1335
vn 0.0381 0.9698 -0.2409
vn -0.2095 0.8572 -0.4704
vn 0.0192 0.8691 -0.4942
vn -0.3805 0.8590 -0.3426
vn -0.4898 0.8572 -0.1591
vn -0.5092 0.8590 0.0535
vn -0.4460 0.8572 0.2575
vn -0.3009 0.8590 0.4142
vn -0.1071 0.8572 0.5037
vn 0.1065 0.8590 0.5008
vn 0.3027 0.8572 0.4166
vn 0.4434 0.8590 0.2560
vn 0.5121 0.8572 0.0538
vn 0.4869 0.8590 -0.1582
vn 0.3486 0.8780 -0.3280
vn 0.1792 0.8837 -0.4323
vn -0.3080 0.9461 0.1001
vn -0.3655 0.9300 -0.0384
vn 0.3344 0.9418 -0.0351
vn 0.3365 0.9353 0.1093
vn -0.2804 0.9461 -0.1619
vn 0.2499 0.9418 0.2250
vn -0.2160 0.9300 -0.2973
vn 0.1439 0.9353 0.3232
vn -0.0835 0.9624 -0.2585
vn 0.0347 0.9342 0.3550
vn 0.0934 0.9535 -0.2864
vn -0.1736 0.9383 0.2991
vn 0.1976 0.9418 -0.2720
vn -0.2731 0.9300 0.2459
vn 0.3064 0.9353 -0.1769
vn -0.3811 0.9162 0.1238
vn -0.3107 0.9084 0.2797
vn -0.2297 0.9510 0.2068
vn -0.2940 0.9510 0.0955
vn 0.3985 0.9162 -0.0419
vn 0.3620 0.9084 -0.2090
vn 0.2677 0.9510 -0.1545
vn 0.3074 0.9510 -0.0323
vn -0.4157 0.9084 -0.0437
vn -0.3074 0.9510 -0.0323
vn 0.3976 0.9084 0.1292
vn 0.2940 0.9510 0.0955
vn -0.3470 0.9162 -0.2003
vn -0.2677 0.9510 -0.1545
vn 0.2978 0.9162 0.2681
vn 0.2297 0.9510 0.2068
vn -0.2457 0.9084 -0.3382
vn -0.1817 0.9510 -0.2501
vn 0.1700 0.9084 0.3819
vn 0.1257 0.9510 0.2824
vn -0.0833 0.9162 -0.3919
vn -0.0643 0.9510 -0.3023
vn 0.0355 0.9350 0.3529
vn -0.0000 0.9510 0.3091
vn 0.0869 0.9084 -0.4089
vn 0.0643 0.9510 -0.3023
vn -0.1759 0.9350 0.3080
vn -0.1257 0.9510 0.2824
vn 0.2355 0.9162 -0.3242
vn 0.1817 0.9510 -0.2501
vn -0.0000 1.0000 -0.0000
vn 0.0093 0.9459 -0.3243
vn 0.1234 0.9459 -0.3000
vn 0.2797 0.9265 -0.2518
vn 0.3738 0.9195 -0.1215
vn 0.3743 0.9265 0.0393
vn 0.3404 0.9195 0.1965
vn 0.2212 0.9265 0.3045
vn 0.0817 0.9195 0.3845
vn -0.0782 0.9265 0.3681
vn -0.2310 0.9195 0.3180
vn -0.3259 0.9265 0.1882
vn -0.3909 0.9195 0.0411
vn -0.3579 0.9265 -0.1163
vn -0.2921 0.9195 -0.2630
vn -0.1531 0.9265 -0.3438
vt 0.857522 0.588874
vt 0.833525 0.586217
vt 0.831676 0.470669
vt 0.877541 0.464317
vt 0.789578 0.369280
vt 0.847387 0.342968
vt 0.740047 0.270518
vt 0.757000 0.254110
vt 0.643617 0.217237
vt 0.671681 0.161738
vt 0.543895 0.171161
vt 0.547009 0.147895
vt 0.435660 0.189213
vt 0.423184 0.128438
vt 0.329230 0.215108
vt 0.317173 0.195021
vt 0.255664 0.298162
vt 0.208181 0.257455
vt 0.186659 0.382249
vt 0.165041 0.374056
vt 0.181752 0.491959
vt 0.119545 0.490345
vt 0.181277 0.601999
vt 0.159090 0.609074
vt 0.245709 0.691546
vt 0.195674 0.729020
vt 0.313957 0.778725
vt 0.300776 0.798118
vt 0.420961 0.809599
vt 0.404055 0.870555
vt 0.527746 0.839322
vt 0.528400 0.862551
vt 0.713949 0.295610
vt 0.632196 0.239764
vt 0.270976 0.312507
vt 0.226508 0.397402
vt 0.338010 0.743138
vt 0.426953 0.788342
vt 0.796204 0.475370
vt 0.766511 0.379828
vt 0.440774 0.213963
vt 0.348258 0.246143
vt 0.221842 0.589005
vt 0.262870 0.678659
vt 0.539094 0.206876
vt 0.203098 0.492484
vt 0.531300 0.795945
vt 0.788783 0.582892
vt 0.390714 0.919365
vt 0.531138 0.937674
vt 0.256959 0.862616
vt 0.155300 0.759164
vt 0.085239 0.632571
vt 0.069402 0.488991
vt 0.092955 0.346715
vt 0.169884 0.225093
vt 0.277192 0.128263
vt 0.413111 0.079498
vt 0.557332 0.070579
vt 0.694237 0.117038
vt 0.813100 0.199664
vt 0.892826 0.321278
vt 0.938231 0.457865
vt 0.931332 0.599830
vt 0.690584 0.318018
vt 0.619777 0.264236
vt 0.255040 0.578336
vt 0.286605 0.660785
vt 0.534779 0.238832
vt 0.357571 0.713957
vt 0.446279 0.240816
vt 0.434702 0.759506
vt 0.364202 0.273664
vt 0.528679 0.757463
vt 0.292936 0.330442
vt 0.751795 0.571153
vt 0.763378 0.478678
vt 0.258917 0.409547
vt 0.741393 0.391259
vt 0.232630 0.493190
vt 0.664532 0.342960
vt 0.705692 0.407353
vt 0.631899 0.440162
vt 0.604703 0.399729
vt 0.286512 0.568190
vt 0.274133 0.494104
vt 0.355318 0.496129
vt 0.362596 0.543949
vt 0.602098 0.299004
vt 0.565203 0.370763
vt 0.319891 0.635622
vt 0.384827 0.586743
vt 0.529931 0.274464
vt 0.518642 0.356204
vt 0.376026 0.686236
vt 0.420144 0.619592
vt 0.454020 0.278817
vt 0.469927 0.357542
vt 0.445067 0.718609
vt 0.464079 0.638837
vt 0.382439 0.304521
vt 0.424643 0.375035
vt 0.522551 0.721819
vt 0.512338 0.641302
vt 0.325051 0.355319
vt 0.387828 0.406579
vt 0.726529 0.481498
vt 0.717170 0.559265
vt 0.638356 0.535909
vt 0.643772 0.487269
vt 0.289634 0.420878
vt 0.364264 0.448714
vt 0.381484 0.393436
vt 0.432226 0.357486
vt 0.491420 0.494824
vt 0.620034 0.571139
vt 0.577875 0.616854
vt 0.349750 0.446916
vt 0.639955 0.512229
vt 0.342512 0.508681
vt 0.634193 0.450310
vt 0.361022 0.568049
vt 0.603745 0.396087
vt 0.402079 0.614756
vt 0.553874 0.358937
vt 0.458584 0.640726
vt 0.493204 0.345283
vt 0.520766 0.641468
vt 0.981485 0.612930
vt 0.990049 0.451497
vt 0.944525 0.296413
vt 0.851023 0.162723
vt 0.719983 0.065981
vt 0.564313 0.018213
vt 0.401579 0.023533
vt 0.250094 0.082983
vt 0.126261 0.188329
vt 0.043793 0.327998
vt 0.012313 0.487430
vt 0.034938 0.648535
vt 0.109381 0.793411
vt 0.227110 0.906437
vt 0.375818 0.975040
vt 0.537076 0.989239
s 1
usemtl Material
f 46/1/1 2/2/2 4/3/3 47/4/4
f 47/4/4 4/3/3 6/5/5 48/6/6
f 48/6/6 6/5/5 8/7/7 49/8/8
f 49/8/8 8/7/7 10/9/9 50/10/10
f 50/10/10 10/9/9 12/11/11 51/12/12
f 51/12/12 12/11/11 14/13/13 52/14/14
f 52/14/14 14/13/13 16/15/15 53/16/16
f 53/16/16 16/15/15 18/17/17 54/18/18
f 54/18/18 18/17/17 20/19/19 55/20/20
f 55/20/20 20/19/19 22/21/21 56/22/22
f 56/22/22 22/21/21 24/23/23 57/24/24
f 57/24/24 24/23/23 26/25/25 58/26/26
f 58/26/26 26/25/25 28/27/27 59/28/28
f 59/28/28 28/27/27 30/29/29 60/30/30
f 60/30/30 30/29/29 2/31/2 46/32/1
f 10/9/9 8/7/7 34/33/31 35/34/32
f 20/19/19 18/17/17 39/35/33 40/36/34
f 30/29/29 28/27/27 44/37/35 45/38/36
f 6/5/5 4/3/3 32/39/37 33/40/38
f 16/15/15 14/13/13 37/41/39 38/42/40
f 26/25/25 24/23/23 42/43/41 43/44/42
f 12/11/11 10/9/9 35/34/32 36/45/43
f 22/21/21 20/19/19 40/36/34 41/46/44
f 2/31/2 30/29/29 45/38/36 31/47/45
f 8/7/7 6/5/5 33/40/38 34/33/31
f 18/17/17 16/15/15 38/42/40 39/35/33
f 4/3/3 2/2/2 31/48/45 32/39/37
f 28/27/27 26/25/25 43/44/42 44/37/35
f 14/13/13 12/11/11 36/45/43 37/41/39
f 24/23/23 22/21/21 41/46/44 42/43/41
f 120/49/46 60/30/30 46/32/1 121/50/47
f 119/51/48 59/28/28 60/30/30 120/49/46
f 118/52/49 58/26/26 59/28/28 119/51/48
f 117/53/50 57/24/24 58/26/26 118/52/49
f 116/54/51 56/22/22 57/24/24 117/53/50
f 115/55/52 55/20/20 56/22/22 116/54/51
f 114/56/53 54/18/18 55/20/20 115/55/52
f 113/57/54 53/16/16 54/18/18 114/56/53
f 112/58/55 52/14/14 53/16/16 113/57/54
f 111/59/56 51/12/12 52/14/14 112/58/55
f 110/60/57 50/10/10 51/12/12 111/59/56
f 109/61/58 49/8/8 50/10/10 110/60/57
f 108/62/59 48/6/6 49/8/8 109/61/58
f 107/63/60 47/4/4 48/6/6 108/62/59
f 121/64/47 46/1/1 47/4/4 107/63/60
f 35/34/32 34/33/31 64/65/61 65/66/62
f 43/44/42 42/43/41 72/67/63 73/68/64
f 36/45/43 35/34/32 65/66/62 66/69/65
f 44/37/35 43/44/42 73/68/64 74/70/66
f 37/41/39 36/45/43 66/69/65 67/71/67
f 45/38/36 44/37/35 74/70/66 75/72/68
f 38/42/40 37/41/39 67/71/67 68/73/69
f 31/47/45 45/38/36 75/72/68 61/74/70
f 39/35/33 38/42/40 68/73/69 69/75/71
f 32/39/37 31/48/45 61/76/70 62/77/72
f 40/36/34 39/35/33 69/75/71 70/78/73
f 33/40/38 32/39/37 62/77/72 63/79/74
f 41/46/44 40/36/34 70/78/73 71/80/75
f 34/33/31 33/40/38 63/79/74 64/65/61
f 42/43/41 41/46/44 71/80/75 72/67/63
f 105/81/76 104/82/77 78/83/78 79/84/79
f 103/85/80 102/86/81 86/87/82 87/88/83
f 101/89/84 105/81/76 79/84/79 80/90/85
f 100/91/86 103/85/80 87/88/83 88/92/87
f 99/93/88 101/89/84 80/90/85 81/94/89
f 98/95/90 100/91/86 88/92/87 89/96/91
f 97/97/92 99/93/88 81/94/89 82/98/93
f 96/99/94 98/95/90 89/96/91 90/100/95
f 95/101/96 97/97/92 82/98/93 83/102/97
f 94/103/98 96/99/94 90/100/95 76/104/99
f 93/105/100 95/101/96 83/102/97 84/106/101
f 92/107/102 94/108/98 76/109/99 77/110/103
f 106/111/104 93/105/100 84/106/101 85/112/105
f 104/82/77 92/107/102 77/110/103 78/83/78
f 102/86/81 106/111/104 85/112/105 86/87/82
f 90/113/95 89/114/91 91/115/106
f 83/116/97 82/117/93 91/115/106
f 76/118/99 90/113/95 91/115/106
f 84/119/101 83/116/97 91/115/106
f 77/120/103 76/118/99 91/115/106
f 85/121/105 84/119/101 91/115/106
f 78/122/78 77/120/103 91/115/106
f 86/123/82 85/121/105 91/115/106
f 79/124/79 78/122/78 91/115/106
f 87/125/83 86/123/82 91/115/106
f 80/126/85 79/124/79 91/115/106
f 88/127/87 87/125/83 91/115/106
f 81/128/89 80/126/85 91/115/106
f 89/114/91 88/127/87 91/115/106
f 82/117/93 81/128/89 91/115/106
f 71/80/75 70/78/73 106/111/104 102/86/81
f 63/79/74 62/77/72 92/107/102 104/82/77
f 70/78/73 69/75/71 93/105/100 106/111/104
f 62/77/72 61/76/70 94/108/98 92/107/102
f 69/75/71 68/73/69 95/101/96 93/105/100
f 61/74/70 75/72/68 96/99/94 94/103/98
f 68/73/69 67/71/67 97/97/92 95/101/96
f 75/72/68 74/70/66 98/95/90 96/99/94
f 67/71/67 66/69/65 99/93/88 97/97/92
f 74/70/66 73/68/64 100/91/86 98/95/90
f 66/69/65 65/66/62 101/89/84 99/93/88
f 73/68/64 72/67/63 103/85/80 100/91/86
f 65/66/62 64/65/61 105/81/76 101/89/84
f 72/67/63 71/80/75 102/86/81 103/85/80
f 64/65/61 63/79/74 104/82/77 105/81/76
f 1/129/107 121/64/47 107/63/60 3/130/108
f 3/130/108 107/63/60 108/62/59 5/131/109
f 5/131/109 108/62/59 109/61/58 7/132/110
f 7/132/110 109/61/58 110/60/57 9/133/111
f 9/133/111 110/60/57 111/59/56 11/134/112
f 11/134/112 111/59/56 112/58/55 13/135/113
f 13/135/113 112/58/55 113/57/54 15/136/114
f 15/136/114 113/57/54 114/56/53 17/137/115
f 17/137/115 114/56/53 115/55/52 19/138/116
f 19/138/116 115/55/52 116/54/51 21/139/117
f 21/139/117 116/54/51 117/53/50 23/140/118
f 23/140/118 117/53/50 118/52/49 25/141/119
f 25/141/119 118/52/49 119/51/48 27/142/120
f 27/142/120 119/51/48 120/49/46 29/143/121
f 29/143/121 120/49/46 121/50/47 1/144/107
